<?xml version="1.0" encoding="UTF-8" standalone="no"?>
<!-- Created with Inkscape (http://www.inkscape.org/) -->

<svg
   width="149.77782mm"
   height="93.506683mm"
   viewBox="0 0 149.77782 93.506683"
   version="1.1"
   id="svg5"
   inkscape:version="1.1.2 (b8e25be8, 2022-02-05)"
   sodipodi:docname="amazon.svg"
   xmlns:inkscape="http://www.inkscape.org/namespaces/inkscape"
   xmlns:sodipodi="http://sodipodi.sourceforge.net/DTD/sodipodi-0.dtd"
   xmlns="http://www.w3.org/2000/svg"
   xmlns:svg="http://www.w3.org/2000/svg">
  <sodipodi:namedview
     id="namedview7"
     pagecolor="#ffffff"
     bordercolor="#666666"
     borderopacity="1.0"
     inkscape:pageshadow="2"
     inkscape:pageopacity="0.0"
     inkscape:pagecheckerboard="0"
     inkscape:document-units="mm"
     showgrid="false"
     fit-margin-top="0"
     fit-margin-left="0"
     fit-margin-right="0"
     fit-margin-bottom="0"
     inkscape:zoom="0.48114636"
     inkscape:cx="-141.32914"
     inkscape:cy="428.14415"
     inkscape:window-width="2048"
     inkscape:window-height="1280"
     inkscape:window-x="0"
     inkscape:window-y="0"
     inkscape:window-maximized="0"
     inkscape:current-layer="layer1" />
  <defs
     id="defs2" />
  <g
     inkscape:label="Layer 1"
     inkscape:groupmode="layer"
     id="layer1"
     transform="translate(66.635083,-56.936452)">
    <path
       style="fill:#03aae7;stroke:none;stroke-width:0.176389"
       d="m -4.9672848,56.984191 c -1.305807,0.188401 -2.612849,0.608612 -3.454048,1.688482 -2.4858492,3.191528 0.458435,7.788911 4.335992,7.327478 1.412523,-0.168099 2.910946,-0.655391 3.76608003,-1.862808 C 2.0477012,60.795267 -1.1355888,56.431317 -4.9672848,56.984191 M -58.413122,73.133847 c -0.663222,-2.866496 -2.19957,-2.645833 -4.7625,-2.645833 -0.928758,0 -2.40942,-0.26282 -2.74574,0.889705 -0.348845,1.195564 -0.07648,2.808641 -0.07648,4.049184 v 8.643056 c 0,8.591904 -0.73937,17.550341 0.01034,26.105381 0.192493,2.19657 4.614404,1.4291 6.163275,1.41058 0.728662,-0.009 1.621896,-0.021 2.036057,-0.73025 0.581201,-0.99536 0.256999,-2.74143 0.256999,-3.85515 v -9.172226 c 2.355497,1.258887 4.469341,2.465036 7.231944,2.469446 1.939926,0.003 3.65372,-0.0806 5.468056,-0.860603 6.865938,-2.951163 8.277226,-11.992858 7.307263,-18.542178 -0.770819,-5.205589 -4.376914,-10.850916 -10.129485,-11.273015 -1.961445,-0.143933 -3.763963,0.07567 -5.644445,0.615421 -1.915583,0.549628 -3.61509,1.598436 -5.115278,2.896482 m 72.848616,0 c -0.484893,-2.817636 -2.179462,-2.645833 -4.5861118,-2.645833 -1.153583,0 -2.635779,-0.217488 -2.937933,1.235427 -0.397934,1.913644 -0.06068,4.219399 -0.06068,6.172907 v 12.700001 c 0,2.433814 -0.657049,5.973763 0.115182,8.282517 0.530931,1.587854 4.5279028,0.890235 5.8820408,0.889705 0.599369,-1.76e-4 1.386064,0.103541 1.884186,-0.307269 1.016,-0.838024 0.408869,-4.454349 0.408869,-5.689953 V 82.30607 c 0,-1.153583 -0.451555,-3.52672 0.181328,-4.51732 1.009827,-1.580444 5.597349,-2.074862 7.227006,-1.628069 2.71586,0.744361 2.469445,3.362149 2.469445,5.616222 v 12.347224 c 0,1.351315 -0.453143,3.721453 0.207962,4.928482 0.335139,0.612069 0.918285,0.703086 1.555925,0.715081 1.54923,0.0291 4.61751,0.56956 5.98682,-0.180446 1.41728,-0.776111 0.71596,-4.933951 0.71596,-6.345062 v -11.28889 c 0,-1.115307 -0.43744,-3.436585 0.28275,-4.349221 1.04969,-1.329796 4.32894,-1.539522 5.89086,-1.567568 3.0884,-0.05556 3.692,2.898422 3.70399,5.387623 0.0194,3.997854 1.8e-4,7.996414 1.8e-4,11.994445 0,1.648883 -0.35542,3.686175 -0.0665,5.289021 0.32438,1.799518 4.5145,1.060979 5.88733,1.060979 0.60855,0 1.38501,0.114653 1.90007,-0.282751 0.66763,-0.515585 0.56903,-1.438981 0.56938,-2.186693 V 92.00746 80.894959 c 0,-4.028899 -0.0804,-8.067676 -4.05695,-10.27042 -3.42388,-1.89671 -8.07032,-0.983369 -11.46527,0.517701 -1.03946,0.45967 -2.54935,1.766182 -3.65125,1.861256 -0.61331,0.05292 -1.2409,-1.058686 -1.64307,-1.426457 -0.97278,-0.890412 -2.22585,-1.59826 -3.52513,-1.879424 -4.846287,-1.049338 -8.689448,1.700918 -12.876391,3.436232 m 50.270841,14.111112 c 5.02479,0.397052 10.93875,1.507773 15.34583,-1.857728 3.43782,-2.625372 3.91636,-8.063089 1.47761,-11.547123 -1.56457,-2.235376 -4.15061,-3.560762 -6.76928,-4.116035 -4.8969,-1.038401 -10.92235,0.440267 -14.23458,4.291895 -5.8577,6.811434 -5.16043,20.610161 3.29847,24.983724 4.067,2.102908 9.57245,2.135718 13.93473,0.947209 1.13206,-0.308505 2.6102,-0.442913 3.50167,-1.285699 0.83044,-0.784931 0.86713,-3.667478 0.44891,-4.703057 -0.64611,-1.599495 -4.81895,-0.03422 -6.06725,0.200554 -5.04049,0.947914 -10.93541,-0.987249 -10.93611,-6.91374 M -23.840898,74.721347 c -0.02452,-1.181276 -0.254529,-3.421768 -1.420812,-4.052006 -0.788106,-0.425979 -2.118254,-0.181327 -2.98891,-0.181327 -0.938389,0 -2.710039,-0.323145 -3.193698,0.743302 -0.782461,1.725084 -0.157691,4.956529 -0.157691,6.84142 v 14.816668 c 0,1.717146 -0.550157,4.570942 0.13088,6.154385 0.291218,0.676805 0.989895,0.715081 1.633009,0.724077 1.44974,0.02029 5.194653,0.650174 6.273447,-0.428625 0.973667,-0.973667 0.429331,-3.927475 0.429331,-5.215114 v -9.877779 c 0,-1.391003 -0.3175,-3.225977 0.05609,-4.567591 0.212901,-0.764822 1.204559,-1.002594 1.884186,-1.164519 1.902178,-0.453143 3.862211,-0.793574 5.820834,-0.794279 0.633059,-1.77e-4 1.836914,0.227718 2.318103,-0.282752 0.515055,-0.546453 0.32773,-1.680104 0.32773,-2.363082 0,-1.688924 0.73219,-4.751564 -1.5875,-4.923014 -3.996091,-0.295099 -6.712656,2.13995 -9.525001,4.570236 m 15.8854082,-4.052006 c -0.844021,0.462139 -0.715962,1.47126 -0.715962,2.288117 v 5.820834 13.934723 c 0,1.760538 -0.527756,4.524729 0.106362,6.170261 0.605896,1.572154 4.518378,0.885295 5.89086,0.885295 0.584377,0 1.3716,0.119592 1.89106603,-0.207962 0.715433,-0.451026 0.578026,-1.538993 0.578379,-2.261482 v -6.173612 -14.46389 c 0,-1.481137 0.540456,-4.3053 -0.232481,-5.604228 -0.360362,-0.605367 -1.09061203,-0.566032 -1.70779703,-0.569207 -1.526117,-0.0081 -4.45964,-0.558624 -5.810427,0.181151 m 77.7771048,4.808538 c 1.46861,-0.191382 3.39513,-0.157691 4.52807,0.922514 2.68253,2.557816 -0.12259,5.799491 -2.94057,6.205538 -1.536,0.221368 -3.2348,0.08643 -4.7625,-0.123472 -0.49883,-0.06844 -1.41553,-0.05168 -1.75878,-0.483658 -0.43233,-0.543807 0.0249,-1.597555 0.20549,-2.162176 0.72461,-2.263951 2.28953,-4.040893 4.72829,-4.358746 m -121.531957,0.382059 c 2.794353,-0.05927 4.642556,1.814336 5.418138,4.329465 1.398235,4.534077 1.243542,13.763274 -5.241749,13.932078 -1.504068,0.03916 -4.839229,-0.149049 -5.815895,-1.522766 -0.523875,-0.736776 -0.181327,-2.539823 -0.181327,-3.413478 V 80.71857 c 0,-0.871361 -0.31556,-2.526066 0.181327,-3.277659 0.9144,-1.382889 4.166482,-1.549753 5.639506,-1.580973 M 68.057723,117.13018 c -3.52937,0.50535 -7.30603,1.34567 -10.40695,3.17923 -0.72566,0.42916 -4.11145,2.45992 -1.92987,3.31453 1.23119,0.48242 3.62973,-0.32456 4.92848,-0.49724 3.30994,-0.43992 6.9081,-0.57327 10.23056,-0.26441 1.40229,0.13035 2.92488,0.17956 4.05359,1.13153 1.32592,1.11831 1.01971,2.64601 0.8853,4.17337 -0.33779,3.84034 -2.09974,7.71048 -3.43447,11.28889 -0.32509,0.87153 -2.47015,4.91807 -0.44274,4.91825 1.88542,0 4.20494,-3.33358 5.13645,-4.74187 2.87814,-4.35116 4.63162,-9.00871 5.58535,-14.11111 0.34255,-1.83233 0.90223,-4.43389 -0.0434,-6.17026 -0.69638,-1.27899 -2.34915,-1.48043 -3.6262,-1.79017 -3.30923,-0.80257 -7.55368,-0.9151 -10.93611,-0.43074 m -133.875764,2.70404 c -1.147692,0.42245 -0.934756,1.7212 -0.286632,2.48215 1.573354,1.84749 3.96845,3.54136 5.927672,4.96693 8.007527,5.82648 16.215079,11.00032 25.400002,14.80785 25.3756602,10.5193 54.228474,11.04583 80.080562,1.89653 5.98858,-2.11931 11.82987,-4.72158 17.28611,-7.98883 2.07239,-1.24107 4.66901,-2.54053 6.33095,-4.31094 1.99725,-2.1276 -0.20637,-4.2254 -2.62678,-3.58899 -2.92876,0.76994 -5.78379,2.30311 -8.64306,3.32423 -5.39909,1.92811 -10.99079,3.49021 -16.58056,4.74063 -23.580016,5.27491 -48.9346858,4.78878 -72.143055,-2.12655 -8.781169,-2.61637 -17.36637,-5.7785 -25.576391,-9.88342 -2.20786,-1.10402 -4.361745,-2.27559 -6.526389,-3.4604 -0.743444,-0.40693 -1.74782,-1.18868 -2.642429,-0.85919 z"
       id="path926" />
  </g>
</svg>
